<svg id="visual" viewBox="0 0 960 300" width="960" height="300" xmlns="http://www.w3.org/2000/svg" xmlns:xlink="http://www.w3.org/1999/xlink" version="1.1"><path d="M0 162L17.8 154.5C35.7 147 71.3 132 106.8 130.8C142.3 129.7 177.7 142.3 213.2 142.5C248.7 142.7 284.3 130.3 320 129.8C355.7 129.3 391.3 140.7 426.8 145C462.3 149.3 497.7 146.7 533.2 145.2C568.7 143.7 604.3 143.3 640 141.8C675.7 140.3 711.3 137.7 746.8 139.2C782.3 140.7 817.7 146.3 853.2 150.7C888.7 155 924.3 158 942.2 159.5L960 161L960 0L942.2 0C924.3 0 888.7 0 853.2 0C817.7 0 782.3 0 746.8 0C711.3 0 675.7 0 640 0C604.3 0 568.7 0 533.2 0C497.7 0 462.3 0 426.8 0C391.3 0 355.7 0 320 0C284.3 0 248.7 0 213.2 0C177.7 0 142.3 0 106.8 0C71.3 0 35.7 0 17.8 0L0 0Z" fill="#5f62ad"></path><path d="M0 131L17.8 131.8C35.7 132.7 71.3 134.3 106.8 133.8C142.3 133.3 177.7 130.7 213.2 128.7C248.7 126.7 284.3 125.3 320 125.3C355.7 125.3 391.3 126.7 426.8 128.8C462.3 131 497.7 134 533.2 131.5C568.7 129 604.3 121 640 120.2C675.7 119.3 711.3 125.7 746.8 129.8C782.3 134 817.7 136 853.2 132.2C888.7 128.3 924.3 118.7 942.2 113.8L960 109L960 0L942.2 0C924.3 0 888.7 0 853.2 0C817.7 0 782.3 0 746.8 0C711.3 0 675.7 0 640 0C604.3 0 568.7 0 533.2 0C497.7 0 462.3 0 426.8 0C391.3 0 355.7 0 320 0C284.3 0 248.7 0 213.2 0C177.7 0 142.3 0 106.8 0C71.3 0 35.7 0 17.8 0L0 0Z" fill="#515997"></path><path d="M0 82L17.8 81.2C35.7 80.3 71.3 78.7 106.8 82.7C142.3 86.7 177.7 96.3 213.2 100.8C248.7 105.3 284.3 104.7 320 101.2C355.7 97.7 391.3 91.3 426.8 92.3C462.3 93.3 497.7 101.7 533.2 102C568.7 102.3 604.3 94.7 640 89.3C675.7 84 711.3 81 746.8 80.2C782.3 79.3 817.7 80.7 853.2 80.3C888.7 80 924.3 78 942.2 77L960 76L960 0L942.2 0C924.3 0 888.7 0 853.2 0C817.7 0 782.3 0 746.8 0C711.3 0 675.7 0 640 0C604.3 0 568.7 0 533.2 0C497.7 0 462.3 0 426.8 0C391.3 0 355.7 0 320 0C284.3 0 248.7 0 213.2 0C177.7 0 142.3 0 106.8 0C71.3 0 35.7 0 17.8 0L0 0Z" fill="#465081"></path><path d="M0 84L17.8 80.2C35.7 76.3 71.3 68.7 106.8 69.5C142.3 70.3 177.7 79.7 213.2 80.7C248.7 81.7 284.3 74.3 320 70C355.7 65.7 391.3 64.3 426.8 64.5C462.3 64.7 497.7 66.3 533.2 67.8C568.7 69.3 604.3 70.7 640 72C675.7 73.3 711.3 74.7 746.8 74.5C782.3 74.3 817.7 72.7 853.2 72.2C888.7 71.7 924.3 72.3 942.2 72.7L960 73L960 0L942.2 0C924.3 0 888.7 0 853.2 0C817.7 0 782.3 0 746.8 0C711.3 0 675.7 0 640 0C604.3 0 568.7 0 533.2 0C497.7 0 462.3 0 426.8 0C391.3 0 355.7 0 320 0C284.3 0 248.7 0 213.2 0C177.7 0 142.3 0 106.8 0C71.3 0 35.7 0 17.8 0L0 0Z" fill="#3c466b"></path><path d="M0 41L17.8 42.7C35.7 44.3 71.3 47.7 106.8 48.3C142.3 49 177.7 47 213.2 48.2C248.7 49.3 284.3 53.7 320 56.3C355.7 59 391.3 60 426.8 60.8C462.3 61.7 497.7 62.3 533.2 59.7C568.7 57 604.3 51 640 48.5C675.7 46 711.3 47 746.8 45.7C782.3 44.3 817.7 40.7 853.2 42.7C888.7 44.7 924.3 52.3 942.2 56.2L960 60L960 0L942.2 0C924.3 0 888.7 0 853.2 0C817.7 0 782.3 0 746.8 0C711.3 0 675.7 0 640 0C604.3 0 568.7 0 533.2 0C497.7 0 462.3 0 426.8 0C391.3 0 355.7 0 320 0C284.3 0 248.7 0 213.2 0C177.7 0 142.3 0 106.8 0C71.3 0 35.7 0 17.8 0L0 0Z" fill="#353d56"></path><path d="M0 26L17.8 28.2C35.7 30.3 71.3 34.7 106.8 34C142.3 33.3 177.7 27.7 213.2 27.7C248.7 27.7 284.3 33.3 320 35.8C355.7 38.3 391.3 37.7 426.8 35.3C462.3 33 497.7 29 533.2 28.7C568.7 28.3 604.3 31.7 640 31.5C675.7 31.3 711.3 27.7 746.8 27.2C782.3 26.7 817.7 29.3 853.2 28.3C888.7 27.3 924.3 22.7 942.2 20.3L960 18L960 0L942.2 0C924.3 0 888.7 0 853.2 0C817.7 0 782.3 0 746.8 0C711.3 0 675.7 0 640 0C604.3 0 568.7 0 533.2 0C497.7 0 462.3 0 426.8 0C391.3 0 355.7 0 320 0C284.3 0 248.7 0 213.2 0C177.7 0 142.3 0 106.8 0C71.3 0 35.7 0 17.8 0L0 0Z" fill="#2e3341"></path></svg>