<svg id="visual" viewBox="0 0 900 300" width="900" height="300" xmlns="http://www.w3.org/2000/svg" xmlns:xlink="http://www.w3.org/1999/xlink" version="1.1"><path d="M0 225L16.7 221C33.3 217 66.7 209 100 206.5C133.3 204 166.7 207 200 209.2C233.3 211.3 266.7 212.7 300 210.3C333.3 208 366.7 202 400 202.7C433.3 203.3 466.7 210.7 500 214C533.3 217.3 566.7 216.7 600 213.2C633.3 209.7 666.7 203.3 700 199C733.3 194.7 766.7 192.3 800 192.7C833.3 193 866.7 196 883.3 197.5L900 199L900 301L883.3 301C866.7 301 833.3 301 800 301C766.7 301 733.3 301 700 301C666.7 301 633.3 301 600 301C566.7 301 533.3 301 500 301C466.7 301 433.3 301 400 301C366.7 301 333.3 301 300 301C266.7 301 233.3 301 200 301C166.7 301 133.3 301 100 301C66.7 301 33.3 301 16.7 301L0 301Z" fill="#5f62ad"></path><path d="M0 210L16.7 212.2C33.3 214.3 66.7 218.7 100 218.8C133.3 219 166.7 215 200 216.2C233.3 217.3 266.7 223.7 300 223.7C333.3 223.7 366.7 217.3 400 216.5C433.3 215.7 466.7 220.3 500 220.8C533.3 221.3 566.7 217.7 600 218.7C633.3 219.7 666.7 225.3 700 228.7C733.3 232 766.7 233 800 233.2C833.3 233.3 866.7 232.7 883.3 232.3L900 232L900 301L883.3 301C866.7 301 833.3 301 800 301C766.7 301 733.3 301 700 301C666.7 301 633.3 301 600 301C566.7 301 533.3 301 500 301C466.7 301 433.3 301 400 301C366.7 301 333.3 301 300 301C266.7 301 233.3 301 200 301C166.7 301 133.3 301 100 301C66.7 301 33.3 301 16.7 301L0 301Z" fill="#4e5791"></path><path d="M0 224L16.7 227.7C33.3 231.3 66.7 238.7 100 238.5C133.3 238.3 166.7 230.7 200 227C233.3 223.3 266.7 223.7 300 225.3C333.3 227 366.7 230 400 233.3C433.3 236.7 466.7 240.3 500 238.8C533.3 237.3 566.7 230.7 600 227.7C633.3 224.7 666.7 225.3 700 226.5C733.3 227.7 766.7 229.3 800 233.2C833.3 237 866.7 243 883.3 246L900 249L900 301L883.3 301C866.7 301 833.3 301 800 301C766.7 301 733.3 301 700 301C666.7 301 633.3 301 600 301C566.7 301 533.3 301 500 301C466.7 301 433.3 301 400 301C366.7 301 333.3 301 300 301C266.7 301 233.3 301 200 301C166.7 301 133.3 301 100 301C66.7 301 33.3 301 16.7 301L0 301Z" fill="#414b76"></path><path d="M0 265L16.7 265.7C33.3 266.3 66.7 267.7 100 268.2C133.3 268.7 166.7 268.3 200 265.3C233.3 262.3 266.7 256.7 300 253.7C333.3 250.7 366.7 250.3 400 251.5C433.3 252.7 466.7 255.3 500 255.7C533.3 256 566.7 254 600 252.7C633.3 251.3 666.7 250.7 700 251.3C733.3 252 766.7 254 800 253.5C833.3 253 866.7 250 883.3 248.5L900 247L900 301L883.3 301C866.7 301 833.3 301 800 301C766.7 301 733.3 301 700 301C666.7 301 633.3 301 600 301C566.7 301 533.3 301 500 301C466.7 301 433.3 301 400 301C366.7 301 333.3 301 300 301C266.7 301 233.3 301 200 301C166.7 301 133.3 301 100 301C66.7 301 33.3 301 16.7 301L0 301Z" fill="#363f5b"></path><path d="M0 274L16.7 274.2C33.3 274.3 66.7 274.7 100 275C133.3 275.3 166.7 275.7 200 275.2C233.3 274.7 266.7 273.3 300 273.8C333.3 274.3 366.7 276.7 400 278.2C433.3 279.7 466.7 280.3 500 278.2C533.3 276 566.7 271 600 270.8C633.3 270.7 666.7 275.3 700 275.3C733.3 275.3 766.7 270.7 800 268.2C833.3 265.7 866.7 265.3 883.3 265.2L900 265L900 301L883.3 301C866.7 301 833.3 301 800 301C766.7 301 733.3 301 700 301C666.7 301 633.3 301 600 301C566.7 301 533.3 301 500 301C466.7 301 433.3 301 400 301C366.7 301 333.3 301 300 301C266.7 301 233.3 301 200 301C166.7 301 133.3 301 100 301C66.7 301 33.3 301 16.7 301L0 301Z" fill="#2e3341"></path></svg>