<svg id="visual" viewBox="0 0 960 300" width="960" height="300" xmlns="http://www.w3.org/2000/svg" xmlns:xlink="http://www.w3.org/1999/xlink" version="1.1"><path d="M0 143L22.8 147.8C45.7 152.7 91.3 162.3 137 169.5C182.7 176.7 228.3 181.3 274 177.5C319.7 173.7 365.3 161.3 411.2 160.7C457 160 503 171 548.8 175.3C594.7 179.7 640.3 177.3 686 171.7C731.7 166 777.3 157 823 159.3C868.7 161.7 914.3 175.3 937.2 182.2L960 189L960 0L937.2 0C914.3 0 868.7 0 823 0C777.3 0 731.7 0 686 0C640.3 0 594.7 0 548.8 0C503 0 457 0 411.2 0C365.3 0 319.7 0 274 0C228.3 0 182.7 0 137 0C91.3 0 45.7 0 22.8 0L0 0Z" fill="#5f62ad"></path><path d="M0 146L22.8 144.8C45.7 143.7 91.3 141.3 137 136.3C182.7 131.3 228.3 123.7 274 122.8C319.7 122 365.3 128 411.2 127.5C457 127 503 120 548.8 115.3C594.7 110.7 640.3 108.3 686 107.7C731.7 107 777.3 108 823 112C868.7 116 914.3 123 937.2 126.5L960 130L960 0L937.2 0C914.3 0 868.7 0 823 0C777.3 0 731.7 0 686 0C640.3 0 594.7 0 548.8 0C503 0 457 0 411.2 0C365.3 0 319.7 0 274 0C228.3 0 182.7 0 137 0C91.3 0 45.7 0 22.8 0L0 0Z" fill="#775396"></path><path d="M0 92L22.8 90.7C45.7 89.3 91.3 86.7 137 87C182.7 87.3 228.3 90.7 274 99.3C319.7 108 365.3 122 411.2 128.8C457 135.7 503 135.3 548.8 130.5C594.7 125.7 640.3 116.3 686 111.7C731.7 107 777.3 107 823 110.7C868.7 114.3 914.3 121.7 937.2 125.3L960 129L960 0L937.2 0C914.3 0 868.7 0 823 0C777.3 0 731.7 0 686 0C640.3 0 594.7 0 548.8 0C503 0 457 0 411.2 0C365.3 0 319.7 0 274 0C228.3 0 182.7 0 137 0C91.3 0 45.7 0 22.8 0L0 0Z" fill="#83467c"></path><path d="M0 85L22.8 88.2C45.7 91.3 91.3 97.7 137 99.7C182.7 101.7 228.3 99.3 274 95.3C319.7 91.3 365.3 85.7 411.2 83.7C457 81.7 503 83.3 548.8 81.5C594.7 79.7 640.3 74.3 686 72.2C731.7 70 777.3 71 823 70C868.7 69 914.3 66 937.2 64.5L960 63L960 0L937.2 0C914.3 0 868.7 0 823 0C777.3 0 731.7 0 686 0C640.3 0 594.7 0 548.8 0C503 0 457 0 411.2 0C365.3 0 319.7 0 274 0C228.3 0 182.7 0 137 0C91.3 0 45.7 0 22.8 0L0 0Z" fill="#853d62"></path><path d="M0 42L22.8 44C45.7 46 91.3 50 137 51.7C182.7 53.3 228.3 52.7 274 50.8C319.7 49 365.3 46 411.2 47.7C457 49.3 503 55.7 548.8 61C594.7 66.3 640.3 70.7 686 73C731.7 75.3 777.3 75.7 823 73.5C868.7 71.3 914.3 66.7 937.2 64.3L960 62L960 0L937.2 0C914.3 0 868.7 0 823 0C777.3 0 731.7 0 686 0C640.3 0 594.7 0 548.8 0C503 0 457 0 411.2 0C365.3 0 319.7 0 274 0C228.3 0 182.7 0 137 0C91.3 0 45.7 0 22.8 0L0 0Z" fill="#7f384b"></path><path d="M0 48L22.8 45.8C45.7 43.7 91.3 39.3 137 34.5C182.7 29.7 228.3 24.3 274 23.7C319.7 23 365.3 27 411.2 26.8C457 26.7 503 22.3 548.8 24.5C594.7 26.7 640.3 35.3 686 35.2C731.7 35 777.3 26 823 25.5C868.7 25 914.3 33 937.2 37L960 41L960 0L937.2 0C914.3 0 868.7 0 823 0C777.3 0 731.7 0 686 0C640.3 0 594.7 0 548.8 0C503 0 457 0 411.2 0C365.3 0 319.7 0 274 0C228.3 0 182.7 0 137 0C91.3 0 45.7 0 22.8 0L0 0Z" fill="#743637"></path></svg>